HIERARCHY
ROOT Root
{
  OFFSET 0.0 0.0 0.0
  CHANNELS 6 Xposition Yposition Zposition Zrotation Yrotation Xrotation
  JOINT Hips
  {
    OFFSET 0.0 100.0 0.0
    CHANNELS 6 Xposition Yposition Zposition Zrotation Yrotation Xrotation
    JOINT Spine1
    {
      OFFSET 5.003913 -0.037094 -0.013727
      CHANNELS 3 Zrotation Yrotation Xrotation
      JOINT Spine2
      {
        OFFSET 7.125363 -1e-06 0.0
        CHANNELS 3 Zrotation Yrotation Xrotation
        JOINT Chest
        {
          OFFSET 7.594027 1e-06 0.0
          CHANNELS 3 Zrotation Yrotation Xrotation
          JOINT Neck1
          {
            OFFSET 26.313086 -0.460272 -0.181672
            CHANNELS 3 Zrotation Yrotation Xrotation
            JOINT Neck2
            {
              OFFSET 8.045911 0.0 0.0
              CHANNELS 3 Zrotation Yrotation Xrotation
              JOINT Head
              {
                OFFSET 6.432774 0.0 0.0
                CHANNELS 3 Zrotation Yrotation Xrotation
                JOINT HeadEnd
                {
                  OFFSET 16.169773 0.06451 0.00362
                  CHANNELS 3 Zrotation Yrotation Xrotation
                }
                JOINT Jaw
                {
                  OFFSET 0.108741 3.12938 0.002639
                  CHANNELS 3 Zrotation Yrotation Xrotation
                }
                JOINT LeftEye
                {
                  OFFSET 4.45173 8.166359 3.206392
                  CHANNELS 3 Zrotation Yrotation Xrotation
                }
                JOINT RightEye
                {
                  OFFSET 4.436895 8.135758 -3.222429
                  CHANNELS 3 Zrotation Yrotation Xrotation
                }
              }
            }
          }
          JOINT LeftShoulder
          {
            OFFSET 23.218927 5.195579 1.621656
            CHANNELS 3 Zrotation Yrotation Xrotation
            JOINT LeftArm
            {
              OFFSET 15.902118 2e-06 -2e-06
              CHANNELS 3 Zrotation Yrotation Xrotation
              JOINT LeftForeArm
              {
                OFFSET 28.739307 0.0 -1e-06
                CHANNELS 3 Zrotation Yrotation Xrotation
                JOINT LeftHand
                {
                  OFFSET 27.093981 -4e-06 0.0
                  CHANNELS 3 Zrotation Yrotation Xrotation
                  JOINT LeftHandThumb1
                  {
                    OFFSET 2.276781 3.380274 0.83384
                    CHANNELS 3 Zrotation Yrotation Xrotation
                    JOINT LeftHandThumb2
                    {
                      OFFSET 4.705309 -1e-06 -1e-06
                      CHANNELS 3 Zrotation Yrotation Xrotation
                      JOINT LeftHandThumb3
                      {
                        OFFSET 2.798515 0.0 3e-06
                        CHANNELS 3 Zrotation Yrotation Xrotation
                        JOINT LeftHandThumbEnd
                        {
                          OFFSET 3.180793 4e-06 -4e-06
                          CHANNELS 3 Zrotation Yrotation Xrotation
                        }
                      }
                    }
                  }
                  JOINT LeftHandIndex1
                  {
                    OFFSET 3.247786 2.352677 0.137192
                    CHANNELS 3 Zrotation Yrotation Xrotation
                    JOINT LeftHandIndex2
                    {
                      OFFSET 6.367095 1e-06 0.0
                      CHANNELS 3 Zrotation Yrotation Xrotation
                      JOINT LeftHandIndex3
                      {
                        OFFSET 3.662364 0.0 0.0
                        CHANNELS 3 Zrotation Yrotation Xrotation
                        JOINT LeftHandIndex4
                        {
                          OFFSET 2.329242 4e-06 -4e-06
                          CHANNELS 3 Zrotation Yrotation Xrotation
                          JOINT LeftHandIndexEnd
                          {
                            OFFSET 2.767823 1e-06 0.0
                            CHANNELS 3 Zrotation Yrotation Xrotation
                          }
                        }
                      }
                    }
                  }
                  JOINT LeftHandMiddle1
                  {
                    OFFSET 3.163612 0.945023 -0.406112
                    CHANNELS 3 Zrotation Yrotation Xrotation
                    JOINT LeftHandMiddle2
                    {
                      OFFSET 6.276789 3e-06 0.0
                      CHANNELS 3 Zrotation Yrotation Xrotation
                      JOINT LeftHandMiddle3
                      {
                        OFFSET 4.35652 -1e-06 4e-06
                        CHANNELS 3 Zrotation Yrotation Xrotation
                        JOINT LeftHandMiddle4
                        {
                          OFFSET 2.996877 0.0 8e-06
                          CHANNELS 3 Zrotation Yrotation Xrotation
                          JOINT LeftHandMiddleEnd
                          {
                            OFFSET 2.323256 3e-06 -4e-06
                            CHANNELS 3 Zrotation Yrotation Xrotation
                          }
                        }
                      }
                    }
                  }
                  JOINT LeftHandRing1
                  {
                    OFFSET 2.882606 -0.309162 0.107445
                    CHANNELS 3 Zrotation Yrotation Xrotation
                    JOINT LeftHandRing2
                    {
                      OFFSET 6.033198 0.0 4e-06
                      CHANNELS 3 Zrotation Yrotation Xrotation
                      JOINT LeftHandRing3
                      {
                        OFFSET 4.350578 3e-06 0.0
                        CHANNELS 3 Zrotation Yrotation Xrotation
                        JOINT LeftHandRing4
                        {
                          OFFSET 2.651321 2e-06 -7e-06
                          CHANNELS 3 Zrotation Yrotation Xrotation
                          JOINT LeftHandRingEnd
                          {
                            OFFSET 1.937663 1e-06 -4e-06
                            CHANNELS 3 Zrotation Yrotation Xrotation
                          }
                        }
                      }
                    }
                  }
                  JOINT LeftHandPinky1
                  {
                    OFFSET 2.865315 -1.525436 0.575687
                    CHANNELS 3 Zrotation Yrotation Xrotation
                    JOINT LeftHandPinky2
                    {
                      OFFSET 5.54936 1e-06 -8e-06
                      CHANNELS 3 Zrotation Yrotation Xrotation
                      JOINT LeftHandPinky3
                      {
                        OFFSET 3.070974 0.0 -4e-06
                        CHANNELS 3 Zrotation Yrotation Xrotation
                        JOINT LeftHandPinky4
                        {
                          OFFSET 1.549672 1e-06 0.0
                          CHANNELS 3 Zrotation Yrotation Xrotation
                          JOINT LeftHandPinkyEnd
                          {
                            OFFSET 1.952123 0.0 0.0
                            CHANNELS 3 Zrotation Yrotation Xrotation
                          }
                        }
                      }
                    }
                  }
                }
              }
            }
          }
          JOINT RightShoulder
          {
            OFFSET 23.161716 5.296122 -1.380114
            CHANNELS 3 Zrotation Yrotation Xrotation
            JOINT RightArm
            {
              OFFSET -16.027195 -2e-06 1.1e-05
              CHANNELS 3 Zrotation Yrotation Xrotation
              JOINT RightForeArm
              {
                OFFSET -28.736639 4e-06 2e-06
                CHANNELS 3 Zrotation Yrotation Xrotation
                JOINT RightHand
                {
                  OFFSET -27.133619 6e-06 0.0
                  CHANNELS 3 Zrotation Yrotation Xrotation
                  JOINT RightHandThumb1
                  {
                    OFFSET -2.274328 -3.351035 -0.83067
                    CHANNELS 3 Zrotation Yrotation Xrotation
                    JOINT RightHandThumb2
                    {
                      OFFSET -4.703594 -3e-06 2e-06
                      CHANNELS 3 Zrotation Yrotation Xrotation
                      JOINT RightHandThumb3
                      {
                        OFFSET -2.794935 -4e-06 -3e-06
                        CHANNELS 3 Zrotation Yrotation Xrotation
                        JOINT RightHandThumbEnd
                        {
                          OFFSET -3.183852 4e-06 1e-06
                          CHANNELS 3 Zrotation Yrotation Xrotation
                        }
                      }
                    }
                  }
                  JOINT RightHandIndex1
                  {
                    OFFSET -3.253496 -2.33755 -0.127667
                    CHANNELS 3 Zrotation Yrotation Xrotation
                    JOINT RightHandIndex2
                    {
                      OFFSET -6.344434 0.0 0.0
                      CHANNELS 3 Zrotation Yrotation Xrotation
                      JOINT RightHandIndex3
                      {
                        OFFSET -3.654871 0.0 -8e-06
                        CHANNELS 3 Zrotation Yrotation Xrotation
                        JOINT RightHandIndex4
                        {
                          OFFSET -2.327586 -1e-06 0.0
                          CHANNELS 3 Zrotation Yrotation Xrotation
                          JOINT RightHandIndexEnd
                          {
                            OFFSET -2.770001 3e-06 8e-06
                            CHANNELS 3 Zrotation Yrotation Xrotation
                          }
                        }
                      }
                    }
                  }
                  JOINT RightHandMiddle1
                  {
                    OFFSET -3.168223 -0.944764 0.411762
                    CHANNELS 3 Zrotation Yrotation Xrotation
                    JOINT RightHandMiddle2
                    {
                      OFFSET -6.266691 -1e-06 -4e-06
                      CHANNELS 3 Zrotation Yrotation Xrotation
                      JOINT RightHandMiddle3
                      {
                        OFFSET -4.348901 0.0 0.0
                        CHANNELS 3 Zrotation Yrotation Xrotation
                        JOINT RightHandMiddle4
                        {
                          OFFSET -3.00024 2e-06 -4e-06
                          CHANNELS 3 Zrotation Yrotation Xrotation
                          JOINT RightHandMiddleEnd
                          {
                            OFFSET -2.321477 -4e-06 -4e-06
                            CHANNELS 3 Zrotation Yrotation Xrotation
                          }
                        }
                      }
                    }
                  }
                  JOINT RightHandRing1
                  {
                    OFFSET -2.885654 0.293261 -0.119232
                    CHANNELS 3 Zrotation Yrotation Xrotation
                    JOINT RightHandRing2
                    {
                      OFFSET -6.032835 -1e-06 -4e-06
                      CHANNELS 3 Zrotation Yrotation Xrotation
                      JOINT RightHandRing3
                      {
                        OFFSET -4.33881 0.0 -4e-06
                        CHANNELS 3 Zrotation Yrotation Xrotation
                        JOINT RightHandRing4
                        {
                          OFFSET -2.654903 -4e-06 -4e-06
                          CHANNELS 3 Zrotation Yrotation Xrotation
                          JOINT RightHandRingEnd
                          {
                            OFFSET -1.935122 0.0 4e-06
                            CHANNELS 3 Zrotation Yrotation Xrotation
                          }
                        }
                      }
                    }
                  }
                  JOINT RightHandPinky1
                  {
                    OFFSET -2.866241 1.503904 -0.60527
                    CHANNELS 3 Zrotation Yrotation Xrotation
                    JOINT RightHandPinky2
                    {
                      OFFSET -5.553177 -2e-06 0.0
                      CHANNELS 3 Zrotation Yrotation Xrotation
                      JOINT RightHandPinky3
                      {
                        OFFSET -3.062664 -1e-06 -4e-06
                        CHANNELS 3 Zrotation Yrotation Xrotation
                        JOINT RightHandPinky4
                        {
                          OFFSET -1.546529 2e-06 4e-06
                          CHANNELS 3 Zrotation Yrotation Xrotation
                          JOINT RightHandPinkyEnd
                          {
                            OFFSET -1.952341 0.0 -4e-06
                            CHANNELS 3 Zrotation Yrotation Xrotation
                          }
                        }
                      }
                    }
                  }
                }
              }
            }
          }
        }
      }
    }
    JOINT LeftLeg
    {
      OFFSET -8.443107 2.567604 10.043214
      CHANNELS 3 Zrotation Yrotation Xrotation
      JOINT LeftShin
      {
        OFFSET 43.229198 1e-06 -1e-06
        CHANNELS 3 Zrotation Yrotation Xrotation
        JOINT LeftFoot
        {
          OFFSET 42.298611 1e-06 1e-06
          CHANNELS 3 Zrotation Yrotation Xrotation
          JOINT LeftToeBase
          {
            OFFSET 14.165858 1e-06 0.0
            CHANNELS 3 Zrotation Yrotation Xrotation
            JOINT LeftToeEnd
            {
              OFFSET 6.7141 -0.234461 0.0
              CHANNELS 3 Zrotation Yrotation Xrotation
            }
          }
        }
      }
    }
    JOINT RightLeg
    {
      OFFSET -8.303923 2.592729 -10.047278
      CHANNELS 3 Zrotation Yrotation Xrotation
      JOINT RightShin
      {
        OFFSET -43.369682 0.0 1e-06
        CHANNELS 3 Zrotation Yrotation Xrotation
        JOINT RightFoot
        {
          OFFSET -42.260784 4e-06 2e-06
          CHANNELS 3 Zrotation Yrotation Xrotation
          JOINT RightToeBase
          {
            OFFSET -14.222245 -2e-06 -1e-06
            CHANNELS 3 Zrotation Yrotation Xrotation
            JOINT RightToeEnd
            {
              OFFSET -6.660062 0.232574 -2e-06
              CHANNELS 3 Zrotation Yrotation Xrotation
            }
          }
        }
      }
    }
  }
}
MOTION
Frames: 4
Frame Time: 0.03333333333333333
0.0 0.0 0.0 0.0 -0.0 0.0 -1.509001 8.55732 110.125801 -21.279707 -84.784775 -156.464462 -3.266123 0.252766 -0.224958 -11.892735 0.270847 0.359372 15.74052 0.573662 -0.523475 13.400086 -3.326256 0.608858 -2.608932 0.239347 -3.698053 -40.973938 1.592885 -4.927699 4e-06 0.0 0.0 -0.185029 -0.050645 0.11451 0.122003 -0.174393 0.275594 0.039141 0.087407 -0.039719 -10.785972 -73.923187 18.521114 9.302809 -33.497852 -75.956764 145.572617 1.980385 -0.745133 -22.362549 22.716684 2.195344 17.636621 -26.322721 52.411182 -19.466656 -14.395596 29.410385 -1e-06 -8.774819 -2e-06 14.989341 -18.032164 6.395964 -0.609776 -1.795653 -3.889328 -4.807087 -11.046805 -2.937851 5e-06 -20.976011 -1e-06 -5.019966 -25.033546 -4.031882 7e-06 1e-06 1e-06 -10.634532 -5.686969 -3.565588 10.573272 -17.922945 -3.113901 2e-06 -13.821206 1e-06 -0.501775 -31.181498 -4.027015 -11.152426 -58.026154 6.613453 -13.982711 -7.150196 -2.875042 13.772726 -8.401489 -3.218242 0.347736 -34.21154 0.771652 -0.963027 -17.733362 2.621018 -1e-06 -1e-06 -0.0 -17.346413 -20.095209 -4.201783 21.757553 -1.638374 3.866426 0.0 -6.338821 2e-06 -1.697588 -22.591738 -6.194005 -0.0 -6e-06 -2e-06 146.994339 -75.349998 45.699463 17.291426 -40.698818 -83.411018 144.598877 1.126384 0.639755 -22.502728 20.907001 18.104826 22.182112 -20.375895 49.933319 -16.701807 -16.74353 28.476528 -2e-06 -12.6906 -0.0 16.596186 -17.850901 2.544026 -0.105919 -1.513855 -4.275881 -5.03904 -5.61287 -2.953557 4e-06 -11.020519 -2e-06 -6.111297 -15.895328 -3.84047 -0.0 -0.0 0.0 -10.283368 -5.680286 -4.341838 11.028294 -11.302401 -2.372633 -1.384268 -14.238577 -6.320121 -0.625438 -26.924183 -3.827599 -4.464444 -50.476234 -3.893463 -13.708523 -7.363473 -3.720939 18.141148 -14.052736 -3.242674 6e-06 -18.787262 -0.0 -0.429712 -8.456043 2.555504 -0.0 2e-06 0.0 -15.923532 -20.094479 -5.473584 30.419207 -7.190821 1.735925 2e-06 -8.162922 0.0 -1.861903 -22.861464 -6.167938 -1e-06 -3e-06 -1e-06 172.190399 -19.84549 -95.072914 11.755948 -27.672045 69.288506 -107.006439 26.145391 -3.31602 -25.542282 1.634995 1.674059 -1.0 0.0 1e-06 -1.71424 -8.809973 -160.031143 -15.78116 -6.032281 151.777176 -100.05117 7.760798 -8.05557 -31.278858 0.88328 1.487357 -1.000002 0.0 0.0 
0.0 0.0 0.0 0.0 -0.0 0.0 -1.520089 8.564311 110.096123 -21.232203 -84.780571 -156.531891 -3.256727 0.246757 -0.242503 -11.908169 0.259278 0.353528 15.748229 0.612744 -0.502956 13.413781 -3.29187 0.620945 -2.609088 0.226394 -3.731704 -41.05444 1.645398 -4.917019 6e-06 -0.0 0.0 -0.188715 -0.061176 0.121546 0.136006 -0.189882 0.289252 0.050278 0.082063 -0.039311 -10.7594 -73.849297 18.564913 9.300813 -33.566154 -75.941475 145.610474 2.012058 -0.71918 -22.362789 22.84033 2.373992 17.63662 -26.322723 52.411194 -19.466656 -14.395596 29.410389 -1e-06 -8.774819 -1e-06 14.967252 -18.043825 6.422814 -0.609776 -1.795653 -3.889328 -4.807088 -11.046807 -2.937849 6e-06 -20.976011 -2e-06 -5.019965 -25.033543 -4.031883 6e-06 1e-06 2e-06 -10.634531 -5.686969 -3.565587 10.573272 -17.922943 -3.113903 3e-06 -13.821205 -0.0 -0.501774 -31.181488 -4.027016 -11.149007 -58.041752 6.624946 -13.982711 -7.150196 -2.875042 13.772727 -8.401489 -3.218241 0.347736 -34.211536 0.771652 -0.963029 -17.733366 2.621018 -1e-06 -2e-06 -0.0 -17.346413 -20.095211 -4.201785 21.757555 -1.638375 3.866426 1e-06 -6.338821 1e-06 -1.697587 -22.591736 -6.194006 -2e-06 -5e-06 -2e-06 147.166489 -75.296532 45.607864 17.410006 -40.693592 -83.589485 144.575775 1.10757 0.671417 -22.623579 20.876122 18.156069 22.182106 -20.375895 49.933327 -16.701807 -16.743528 28.476532 -4e-06 -12.690598 0.0 16.664827 -17.861412 2.525997 -0.10592 -1.513856 -4.275882 -5.039039 -5.61287 -2.953557 4e-06 -11.02052 -2e-06 -6.111295 -15.895334 -3.840471 -0.0 -0.0 -0.0 -10.283367 -5.680288 -4.341839 11.028292 -11.302402 -2.372633 -1.384267 -14.238582 -6.320122 -0.625436 -26.924183 -3.827602 -4.437261 -50.530811 -3.9317 -13.70852 -7.363474 -3.72094 18.141146 -14.052738 -3.242676 6e-06 -18.787266 -2e-06 -0.429712 -8.456047 2.555503 0.0 2e-06 -0.0 -15.923528 -20.094479 -5.473586 30.419207 -7.190823 1.735923 2e-06 -8.162925 -0.0 -1.861901 -22.861464 -6.167941 1e-06 -4e-06 -1e-06 172.12265 -19.896461 -95.129837 11.788982 -27.825792 69.418465 -107.038254 26.071537 -3.230731 -25.595896 1.629316 1.673458 -1.0 0.0 -0.0 -1.879962 -8.83815 -159.996933 -16.045248 -6.199279 151.832336 -100.13308 7.741528 -8.086365 -31.197517 0.884068 1.481315 -1.000003 0.0 0.0 
0.0 0.0 0.0 0.0 -0.0 0.0 -1.543701 8.560586 110.070251 -21.183456 -84.789886 -156.590866 -3.259078 0.249586 -0.254596 -11.91932 0.240543 0.34059 15.761068 0.620556 -0.473 13.43777 -3.25929 0.622047 -2.606419 0.223589 -3.758736 -41.108356 1.689994 -4.934341 5e-06 0.0 -0.0 -0.191937 -0.069734 0.126667 0.140591 -0.201214 0.298435 0.053588 0.076772 -0.038306 -10.772657 -73.769859 18.601721 9.329959 -33.612431 -75.814568 145.653107 2.049271 -0.668666 -22.341833 22.974279 2.580555 17.636641 -26.322741 52.411213 -19.466665 -14.395606 29.410395 -1e-06 -8.774826 -2e-06 14.951954 -18.040554 6.423361 -0.609776 -1.795654 -3.889329 -4.807092 -11.046814 -2.937849 4e-06 -20.976025 1e-06 -5.019973 -25.033564 -4.031882 6e-06 1e-06 0.0 -10.634539 -5.686973 -3.565588 10.573279 -17.922955 -3.113903 3e-06 -13.821216 -1e-06 -0.501777 -31.181511 -4.027017 -11.134241 -58.028667 6.616339 -13.98272 -7.1502 -2.875042 13.772738 -8.401495 -3.218242 0.347736 -34.211559 0.771655 -0.963026 -17.733376 2.62102 -1e-06 -1e-06 0.0 -17.346428 -20.095224 -4.201782 21.757572 -1.638377 3.866428 0.0 -6.338826 2e-06 -1.697591 -22.591757 -6.194008 -1e-06 -6e-06 -2e-06 147.234665 -75.256668 45.63253 17.531265 -40.68998 -83.706779 144.529007 1.111563 0.687276 -22.651834 20.894606 18.264776 22.182108 -20.375898 49.933327 -16.701815 -16.74353 28.476536 -2e-06 -12.690601 -1e-06 16.749369 -17.879379 2.525383 -0.105919 -1.513856 -4.275882 -5.039041 -5.612873 -2.953557 5e-06 -11.020526 -2e-06 -6.111297 -15.895334 -3.840471 -1e-06 -3e-06 -1e-06 -10.283369 -5.680288 -4.341839 11.028295 -11.302406 -2.372633 -1.384267 -14.238585 -6.320122 -0.625436 -26.924191 -3.827602 -4.438541 -50.619576 -3.933561 -13.708524 -7.363476 -3.72094 18.14115 -14.052741 -3.242676 7e-06 -18.787271 -3e-06 -0.429711 -8.456049 2.555503 -1e-06 1e-06 -0.0 -15.923532 -20.094484 -5.473586 30.419214 -7.190827 1.735924 2e-06 -8.162929 -1e-06 -1.8619 -22.861473 -6.167945 0.0 -7e-06 -1e-06 172.088058 -19.947044 -95.128662 11.867618 -27.915537 69.434029 -107.032921 26.037146 -3.187486 -25.523489 1.622705 1.683328 -0.999999 0.0 0.0 -2.069032 -8.820025 -159.977219 -16.300966 -6.367631 151.874908 -99.964417 7.786417 -8.013094 -31.025097 0.882737 1.481269 -1.000002 0.0 0.0 
0.0 0.0 0.0 0.0 -0.0 0.0 -1.577857 8.533722 110.039833 -21.036514 -84.818398 -156.737808 -3.262789 0.248763 -0.267115 -11.924409 0.229009 0.327254 15.779332 0.595463 -0.447373 13.464393 -3.218608 0.609912 -2.604054 0.228732 -3.759701 -41.112614 1.697731 -4.950669 5e-06 0.0 0.0 -0.19364 -0.076465 0.129953 0.137954 -0.207698 0.302397 0.050025 0.070417 -0.035961 -10.783517 -73.702057 18.573483 9.3639 -33.624401 -75.600075 145.678284 2.098886 -0.614785 -22.3099 23.105816 2.731781 17.636631 -26.322733 52.411194 -19.46666 -14.3956 29.410389 -1e-06 -8.774822 -2e-06 14.943334 -18.026949 6.400333 -0.609776 -1.795653 -3.889326 -4.807089 -11.046811 -2.93785 4e-06 -20.976017 1e-06 -5.019968 -25.033556 -4.031882 5e-06 1e-06 1e-06 -10.634533 -5.68697 -3.565588 10.573274 -17.922949 -3.1139 2e-06 -13.821209 1e-06 -0.501779 -31.181505 -4.027014 -11.107613 -57.996819 6.580866 -13.982712 -7.150197 -2.875042 13.772727 -8.401491 -3.21824 0.347733 -34.211544 0.771655 -0.963027 -17.73337 2.621018 -2e-06 -2e-06 0.0 -17.346416 -20.095213 -4.201781 21.757559 -1.638376 3.866429 1e-06 -6.338824 1e-06 -1.697589 -22.591745 -6.194006 -0.0 -5e-06 -2e-06 147.179596 -75.224739 45.771847 17.653927 -40.697201 -83.715378 144.486954 1.130355 0.69644 -22.59425 20.989449 18.362915 22.182117 -20.375891 49.933311 -16.701807 -16.743528 28.476522 -2e-06 -12.6906 -2e-06 16.819418 -17.889627 2.536656 -0.105919 -1.513856 -4.275881 -5.039041 -5.61287 -2.953557 4e-06 -11.02052 -2e-06 -6.111298 -15.895334 -3.840471 0.0 -0.0 -0.0 -10.283371 -5.680287 -4.341838 11.028293 -11.302402 -2.372632 -1.384269 -14.238581 -6.32012 -0.625439 -26.924185 -3.8276 -4.458468 -50.730042 -3.898262 -13.708524 -7.363475 -3.72094 18.141148 -14.052738 -3.242672 6e-06 -18.787264 -2e-06 -0.429711 -8.456046 2.555504 -0.0 -0.0 -0.0 -15.923536 -20.094481 -5.473585 30.41921 -7.190826 1.735928 2e-06 -8.162925 -0.0 -1.861901 -22.861464 -6.167941 0.0 -5e-06 -1e-06 172.091415 -19.990332 -95.132454 11.945682 -27.990223 69.415092 -107.034355 26.042019 -3.223901 -25.339653 1.615873 1.69441 -1.0 0.0 0.0 -2.239125 -8.886306 -160.029785 -16.622612 -6.554133 152.029083 -99.929443 7.794213 -7.979087 -30.803562 0.878583 1.483621 -1.000002 0.0 -1e-06 
